<svg xmlns="http://www.w3.org/2000/svg" viewBox="-150 -150 300 300" width="300" height="300">
  <path d="M -9.20 19.72 L -10.25 19.20 L -11.21 18.50 L -12.06 17.67 L -12.84 16.79 L -13.59 15.91 L -14.36 15.08 L -15.18 14.30 L -16.03 13.55 L -16.89 12.78 L -17.71 11.95 L -18.44 11.04 L -19.04 10.04 L -19.52 8.98 L -19.88 7.87 L -20.17 6.75 L -20.42 5.62 L -20.66 4.50 L -20.88 3.38 L -21.07 2.25 L -21.21 1.11 L -21.25 -0.04 L -21.22 -1.19 L -21.12 -2.33 L -20.96 -3.47 L -20.75 -4.60 L -20.47 -5.71 L -20.13 -6.81 L -19.73 -7.89 L -19.27 -8.95 L -18.76 -9.98 L -18.20 -10.98 L -17.58 -11.94 L -16.90 -12.88 L -16.18 -13.77 L -15.41 -14.63 L -14.60 -15.44 L -13.74 -16.21 L -12.85 -16.93 L -11.91 -17.60 L -10.94 -18.21 L -9.94 -18.78 L -8.91 -19.29 L -7.86 -19.74 L -6.78 -20.14 L -5.68 -20.48 L -4.56 -20.75 L -3.43 -20.97 L -2.29 -21.13 L -1.15 -21.22 L -0.00 -21.25 L 1.15 -21.22 L 2.29 -21.13 L 3.43 -20.97 L 4.56 -20.75 L 5.68 -20.48 L 6.78 -20.14 L 7.86 -19.74 L 8.91 -19.29 L 9.94 -18.78 L 10.94 -18.21 L 11.91 -17.60 L 12.85 -16.93 L 13.74 -16.21 L 14.60 -15.44 L 15.41 -14.63 L 16.18 -13.77 L 16.90 -12.88 L 17.58 -11.94 L 18.20 -10.98 L 18.76 -9.98 L 19.27 -8.95 L 19.73 -7.89 L 20.13 -6.81 L 20.47 -5.71 L 20.75 -4.60 L 20.96 -3.47 L 21.12 -2.33 L 21.22 -1.19 L 21.25 -0.04 L 21.24 1.11 L 21.19 2.26 L 21.07 3.41 L 20.87 4.55 L 20.55 5.66 L 20.14 6.74 L 19.64 7.77 L 19.10 8.78 L 18.55 9.78 L 18.03 10.79 L 17.52 11.82 L 17.00 12.86 L 16.43 13.88 L 15.75 14.84 L 14.95 15.69 L 14.01 16.40 L 12.98 16.97 L 11.89 17.43 L 10.81 17.85 L 9.76 18.29 L 8.76 18.80 L 7.71 16.53 L 8.59 16.08 L 9.52 15.71 L 10.48 15.37 L 11.46 14.99 L 12.39 14.50 L 13.22 13.88 L 13.93 13.13 L 14.52 12.27 L 15.01 11.35 L 15.45 10.42 L 15.88 9.51 L 16.34 8.62 L 16.82 7.74 L 17.31 6.85 L 17.77 5.94 L 18.14 5.00 L 18.42 4.02 L 18.60 3.01 L 18.70 2.00 L 18.74 0.98 L 18.75 -0.03 L 18.72 -1.05 L 18.64 -2.06 L 18.50 -3.06 L 18.31 -4.06 L 18.06 -5.04 L 17.76 -6.01 L 17.41 -6.96 L 17.01 -7.89 L 16.56 -8.80 L 16.06 -9.68 L 15.51 -10.54 L 14.92 -11.36 L 14.28 -12.15 L 13.60 -12.91 L 12.88 -13.62 L 12.13 -14.30 L 11.34 -14.93 L 10.51 -15.53 L 9.66 -16.07 L 8.77 -16.57 L 7.86 -17.02 L 6.93 -17.42 L 5.98 -17.77 L 5.01 -18.07 L 4.03 -18.31 L 3.03 -18.50 L 2.02 -18.64 L 1.01 -18.72 L -0.00 -18.75 L -1.01 -18.72 L -2.02 -18.64 L -3.03 -18.50 L -4.03 -18.31 L -5.01 -18.07 L -5.98 -17.77 L -6.93 -17.42 L -7.86 -17.02 L -8.77 -16.57 L -9.66 -16.07 L -10.51 -15.53 L -11.34 -14.93 L -12.13 -14.30 L -12.88 -13.62 L -13.60 -12.91 L -14.28 -12.15 L -14.92 -11.36 L -15.51 -10.54 L -16.06 -9.68 L -16.56 -8.80 L -17.01 -7.89 L -17.41 -6.96 L -17.76 -6.01 L -18.06 -5.04 L -18.31 -4.06 L -18.50 -3.06 L -18.64 -2.06 L -18.72 -1.05 L -18.75 -0.03 L -18.71 0.98 L -18.59 1.99 L -18.41 2.98 L -18.21 3.97 L -18.01 4.96 L -17.80 5.95 L -17.55 6.95 L -17.24 7.93 L -16.83 8.87 L -16.29 9.75 L -15.64 10.55 L -14.90 11.27 L -14.12 11.94 L -13.36 12.59 L -12.64 13.27 L -11.97 14.01 L -11.32 14.80 L -10.65 15.61 L -9.91 16.36 L -9.08 17.00 L -8.14 17.46 Z" fill="#D4AF37" />
  <path d="M -12.48 26.77 L -13.76 25.77 L -14.93 24.66 L -16.06 23.54 L -17.20 22.50 L -18.40 21.54 L -19.66 20.64 L -20.95 19.74 L -22.21 18.77 L -23.37 17.68 L -24.37 16.44 L -25.18 15.07 L -25.83 13.62 L -26.35 12.12 L -26.81 10.61 L -27.25 9.12 L -27.69 7.63 L -28.12 6.13 L -28.50 4.62 L -28.77 3.07 L -28.92 1.52 L -28.94 -0.05 L -28.90 -1.62 L -28.77 -3.18 L -28.55 -4.73 L -28.26 -6.26 L -27.88 -7.78 L -27.41 -9.28 L -26.87 -10.75 L -26.25 -12.19 L -25.55 -13.59 L -24.78 -14.95 L -23.94 -16.27 L -23.02 -17.54 L -22.04 -18.76 L -20.99 -19.92 L -19.89 -21.03 L -18.72 -22.07 L -17.50 -23.05 L -16.23 -23.97 L -14.91 -24.81 L -13.54 -25.58 L -12.14 -26.27 L -10.70 -26.89 L -9.23 -27.43 L -7.73 -27.89 L -6.21 -28.27 L -4.68 -28.56 L -3.13 -28.77 L -1.57 -28.90 L -0.00 -28.94 L 1.57 -28.90 L 3.13 -28.77 L 4.68 -28.56 L 6.21 -28.27 L 7.73 -27.89 L 9.23 -27.43 L 10.70 -26.89 L 12.14 -26.27 L 13.54 -25.58 L 14.91 -24.81 L 16.23 -23.97 L 17.50 -23.05 L 18.72 -22.07 L 19.89 -21.03 L 20.99 -19.92 L 22.04 -18.76 L 23.02 -17.54 L 23.94 -16.27 L 24.78 -14.95 L 25.55 -13.59 L 26.25 -12.19 L 26.87 -10.75 L 27.41 -9.28 L 27.88 -7.78 L 28.26 -6.26 L 28.55 -4.73 L 28.77 -3.18 L 28.90 -1.62 L 28.94 -0.05 L 28.95 1.52 L 28.86 3.08 L 28.64 4.64 L 28.28 6.17 L 27.79 7.66 L 27.23 9.11 L 26.63 10.54 L 26.03 11.97 L 25.46 13.42 L 24.87 14.89 L 24.23 16.34 L 23.46 17.74 L 22.51 19.02 L 21.38 20.15 L 20.09 21.10 L 18.71 21.91 L 17.30 22.63 L 15.94 23.36 L 14.64 24.17 L 13.39 25.08 L 12.16 26.08 L 11.11 23.81 L 12.22 22.88 L 13.34 22.03 L 14.53 21.30 L 15.79 20.65 L 17.09 20.00 L 18.37 19.29 L 19.56 18.43 L 20.60 17.41 L 21.46 16.23 L 22.16 14.94 L 22.73 13.60 L 23.25 12.26 L 23.76 10.93 L 24.30 9.62 L 24.85 8.32 L 25.38 6.99 L 25.83 5.63 L 26.17 4.24 L 26.37 2.82 L 26.45 1.39 L 26.44 -0.05 L 26.40 -1.48 L 26.28 -2.90 L 26.09 -4.32 L 25.82 -5.72 L 25.47 -7.11 L 25.05 -8.48 L 24.55 -9.82 L 23.98 -11.13 L 23.35 -12.41 L 22.64 -13.66 L 21.87 -14.86 L 21.03 -16.02 L 20.14 -17.14 L 19.18 -18.20 L 18.17 -19.21 L 17.10 -20.17 L 15.99 -21.06 L 14.82 -21.90 L 13.62 -22.67 L 12.37 -23.37 L 11.09 -24.00 L 9.78 -24.57 L 8.43 -25.06 L 7.07 -25.48 L 5.68 -25.83 L 4.27 -26.09 L 2.86 -26.29 L 1.43 -26.40 L -0.00 -26.44 L -1.43 -26.40 L -2.86 -26.29 L -4.27 -26.09 L -5.68 -25.83 L -7.07 -25.48 L -8.43 -25.06 L -9.78 -24.57 L -11.09 -24.00 L -12.37 -23.37 L -13.62 -22.67 L -14.82 -21.90 L -15.99 -21.06 L -17.10 -20.17 L -18.17 -19.21 L -19.18 -18.20 L -20.14 -17.14 L -21.03 -16.02 L -21.87 -14.86 L -22.64 -13.66 L -23.35 -12.41 L -23.98 -11.13 L -24.55 -9.82 L -25.05 -8.48 L -25.47 -7.11 L -25.82 -5.72 L -26.09 -4.32 L -26.28 -2.90 L -26.40 -1.48 L -26.44 -0.05 L -26.43 1.38 L -26.29 2.81 L -26.03 4.22 L -25.68 5.60 L -25.28 6.96 L -24.88 8.32 L -24.48 9.69 L -24.08 11.07 L -23.61 12.45 L -23.04 13.79 L -22.30 15.04 L -21.38 16.17 L -20.30 17.16 L -19.13 18.03 L -17.93 18.83 L -16.77 19.64 L -15.68 20.51 L -14.65 21.48 L -13.64 22.52 L -12.58 23.56 L -11.43 24.51 Z" fill="#D4AF37" />
  <path d="M -15.45 33.13 L -17.00 31.84 L -18.55 30.62 L -20.15 29.55 L -21.85 28.58 L -23.61 27.64 L -25.36 26.63 L -27.01 25.46 L -28.48 24.07 L -29.72 22.47 L -30.72 20.72 L -31.55 18.88 L -32.28 17.02 L -32.99 15.17 L -33.71 13.35 L -34.44 11.52 L -35.15 9.68 L -35.76 7.80 L -36.23 5.87 L -36.52 3.90 L -36.64 1.92 L -36.63 -0.06 L -36.58 -2.04 L -36.41 -4.02 L -36.14 -5.98 L -35.77 -7.93 L -35.29 -9.85 L -34.70 -11.75 L -34.01 -13.60 L -33.23 -15.42 L -32.35 -17.20 L -31.37 -18.92 L -30.30 -20.59 L -29.14 -22.20 L -27.90 -23.74 L -26.57 -25.22 L -25.17 -26.62 L -23.69 -27.94 L -22.15 -29.18 L -20.54 -30.34 L -18.87 -31.40 L -17.14 -32.38 L -15.37 -33.26 L -13.55 -34.04 L -11.68 -34.72 L -9.79 -35.30 L -7.87 -35.78 L -5.92 -36.15 L -3.96 -36.42 L -1.98 -36.58 L -0.00 -36.63 L 1.98 -36.58 L 3.96 -36.42 L 5.92 -36.15 L 7.87 -35.78 L 9.79 -35.30 L 11.68 -34.72 L 13.55 -34.04 L 15.37 -33.26 L 17.14 -32.38 L 18.87 -31.40 L 20.54 -30.34 L 22.15 -29.18 L 23.69 -27.94 L 25.17 -26.62 L 26.57 -25.22 L 27.90 -23.74 L 29.14 -22.20 L 30.30 -20.59 L 31.37 -18.92 L 32.35 -17.20 L 33.23 -15.42 L 34.01 -13.60 L 34.70 -11.75 L 35.29 -9.85 L 35.77 -7.93 L 36.14 -5.98 L 36.41 -4.02 L 36.58 -2.04 L 36.63 -0.06 L 36.62 1.92 L 36.44 3.89 L 36.09 5.85 L 35.61 7.76 L 35.05 9.65 L 34.46 11.53 L 33.88 13.42 L 33.29 15.31 L 32.64 17.21 L 31.85 19.06 L 30.86 20.82 L 29.63 22.41 L 28.19 23.82 L 26.59 25.06 L 24.93 26.18 L 23.30 27.28 L 21.75 28.44 L 20.27 29.72 L 18.84 31.10 L 17.36 32.51 L 15.77 33.81 L 14.71 31.55 L 16.18 30.31 L 17.54 28.97 L 18.87 27.66 L 20.23 26.46 L 21.68 25.38 L 23.21 24.37 L 24.77 23.34 L 26.28 22.21 L 27.64 20.90 L 28.79 19.42 L 29.71 17.78 L 30.43 16.04 L 31.02 14.27 L 31.56 12.50 L 32.09 10.74 L 32.64 8.99 L 33.16 7.23 L 33.62 5.45 L 33.95 3.63 L 34.12 1.79 L 34.13 -0.06 L 34.08 -1.91 L 33.93 -3.75 L 33.68 -5.58 L 33.33 -7.39 L 32.88 -9.18 L 32.33 -10.94 L 31.69 -12.68 L 30.96 -14.37 L 30.14 -16.03 L 29.23 -17.63 L 28.23 -19.19 L 27.15 -20.69 L 25.99 -22.12 L 24.76 -23.50 L 23.45 -24.80 L 22.08 -26.03 L 20.64 -27.19 L 19.14 -28.27 L 17.58 -29.26 L 15.97 -30.17 L 14.32 -30.99 L 12.62 -31.72 L 10.89 -32.35 L 9.12 -32.89 L 7.33 -33.34 L 5.52 -33.69 L 3.69 -33.93 L 1.85 -34.08 L -0.00 -34.13 L -1.85 -34.08 L -3.69 -33.93 L -5.52 -33.69 L -7.33 -33.34 L -9.12 -32.89 L -10.89 -32.35 L -12.62 -31.72 L -14.32 -30.99 L -15.97 -30.17 L -17.58 -29.26 L -19.14 -28.27 L -20.64 -27.19 L -22.08 -26.03 L -23.45 -24.80 L -24.76 -23.50 L -25.99 -22.12 L -27.15 -20.69 L -28.23 -19.19 L -29.23 -17.63 L -30.14 -16.03 L -30.96 -14.37 L -31.69 -12.68 L -32.33 -10.94 L -32.88 -9.18 L -33.33 -7.39 L -33.68 -5.58 L -33.93 -3.75 L -34.08 -1.91 L -34.13 -0.06 L -34.14 1.79 L -34.03 3.64 L -33.76 5.47 L -33.32 7.26 L -32.74 9.02 L -32.07 10.73 L -31.38 12.42 L -30.71 14.13 L -30.07 15.85 L -29.41 17.60 L -28.65 19.32 L -27.72 20.97 L -26.57 22.45 L -25.19 23.74 L -23.64 24.82 L -21.99 25.74 L -20.33 26.59 L -18.75 27.48 L -17.25 28.48 L -15.82 29.63 L -14.39 30.87 Z" fill="#D4AF37" />
  <path d="M -18.30 39.24 L -20.34 38.10 L -22.49 37.13 L -24.72 36.24 L -26.99 35.30 L -29.17 34.15 L -31.17 32.73 L -32.90 31.00 L -34.35 29.02 L -35.56 26.89 L -36.63 24.70 L -37.65 22.53 L -38.70 20.40 L -39.80 18.30 L -40.91 16.20 L -41.95 14.04 L -42.84 11.80 L -43.51 9.49 L -43.96 7.12 L -44.20 4.72 L -44.31 2.32 L -44.33 -0.08 L -44.26 -2.47 L -44.06 -4.86 L -43.73 -7.24 L -43.28 -9.59 L -42.69 -11.92 L -41.99 -14.21 L -41.16 -16.46 L -40.21 -18.66 L -39.14 -20.81 L -37.96 -22.90 L -36.66 -24.92 L -35.26 -26.86 L -33.76 -28.73 L -32.15 -30.51 L -30.46 -32.21 L -28.67 -33.81 L -26.80 -35.31 L -24.85 -36.71 L -22.83 -38.00 L -20.74 -39.17 L -18.59 -40.24 L -16.39 -41.19 L -14.14 -42.01 L -11.85 -42.71 L -9.52 -43.29 L -7.16 -43.74 L -4.79 -44.07 L -2.40 -44.26 L -0.00 -44.33 L 2.40 -44.26 L 4.79 -44.07 L 7.16 -43.74 L 9.52 -43.29 L 11.85 -42.71 L 14.14 -42.01 L 16.39 -41.19 L 18.59 -40.24 L 20.74 -39.17 L 22.83 -38.00 L 24.85 -36.71 L 26.80 -35.31 L 28.67 -33.81 L 30.46 -32.21 L 32.15 -30.51 L 33.76 -28.73 L 35.26 -26.86 L 36.66 -24.92 L 37.96 -22.90 L 39.14 -20.81 L 40.21 -18.66 L 41.16 -16.46 L 41.99 -14.21 L 42.69 -11.92 L 43.28 -9.59 L 43.73 -7.24 L 44.06 -4.86 L 44.26 -2.47 L 44.33 -0.08 L 44.24 2.32 L 43.97 4.70 L 43.55 7.05 L 43.07 9.39 L 42.55 11.72 L 42.02 14.06 L 41.42 16.40 L 40.69 18.72 L 39.74 20.95 L 38.52 23.06 L 37.03 24.98 L 35.32 26.71 L 33.50 28.31 L 31.68 29.85 L 29.93 31.43 L 28.28 33.11 L 26.69 34.91 L 25.07 36.75 L 23.33 38.52 L 21.39 40.05 L 19.22 41.21 L 18.16 38.95 L 20.21 37.85 L 22.03 36.38 L 23.66 34.69 L 25.17 32.92 L 26.65 31.21 L 28.20 29.62 L 29.86 28.14 L 31.59 26.70 L 33.33 25.21 L 34.96 23.58 L 36.38 21.77 L 37.53 19.79 L 38.42 17.67 L 39.10 15.48 L 39.64 13.26 L 40.14 11.06 L 40.62 8.86 L 41.09 6.65 L 41.48 4.43 L 41.74 2.19 L 41.83 -0.07 L 41.76 -2.33 L 41.57 -4.59 L 41.27 -6.83 L 40.84 -9.05 L 40.29 -11.25 L 39.62 -13.41 L 38.84 -15.53 L 37.94 -17.61 L 36.93 -19.64 L 35.82 -21.60 L 34.59 -23.51 L 33.27 -25.35 L 31.85 -27.11 L 30.34 -28.79 L 28.74 -30.39 L 27.05 -31.90 L 25.29 -33.32 L 23.45 -34.64 L 21.54 -35.85 L 19.57 -36.97 L 17.54 -37.97 L 15.47 -38.86 L 13.34 -39.64 L 11.18 -40.31 L 8.98 -40.85 L 6.76 -41.28 L 4.52 -41.58 L 2.26 -41.77 L -0.00 -41.83 L -2.26 -41.77 L -4.52 -41.58 L -6.76 -41.28 L -8.98 -40.85 L -11.18 -40.31 L -13.34 -39.64 L -15.47 -38.86 L -17.54 -37.97 L -19.57 -36.97 L -21.54 -35.85 L -23.45 -34.64 L -25.29 -33.32 L -27.05 -31.90 L -28.74 -30.39 L -30.34 -28.79 L -31.85 -27.11 L -33.27 -25.35 L -34.59 -23.51 L -35.82 -21.60 L -36.93 -19.64 L -37.94 -17.61 L -38.84 -15.53 L -39.62 -13.41 L -40.29 -11.25 L -40.84 -9.05 L -41.27 -6.83 L -41.57 -4.59 L -41.76 -2.33 L -41.83 -0.07 L -41.81 2.19 L -41.72 4.46 L -41.49 6.72 L -41.07 8.95 L -40.43 11.14 L -39.58 13.24 L -38.58 15.28 L -37.53 17.26 L -36.49 19.24 L -35.50 21.25 L -34.55 23.31 L -33.56 25.38 L -32.44 27.41 L -31.08 29.29 L -29.44 30.92 L -27.55 32.25 L -25.47 33.31 L -23.32 34.18 L -21.19 34.99 L -19.16 35.89 L -17.24 36.97 Z" fill="#D4AF37" />
  <path d="M -21.47 46.05 L -24.19 45.30 L -26.96 44.52 L -29.69 43.53 L -32.25 42.18 L -34.53 40.43 L -36.50 38.32 L -38.17 35.97 L -39.64 33.50 L -41.04 31.04 L -42.47 28.64 L -43.98 26.32 L -45.54 24.01 L -47.08 21.66 L -48.49 19.20 L -49.65 16.61 L -50.53 13.92 L -51.13 11.15 L -51.51 8.34 L -51.76 5.53 L -51.92 2.72 L -52.02 -0.09 L -51.94 -2.90 L -51.71 -5.71 L -51.32 -8.50 L -50.79 -11.26 L -50.10 -13.99 L -49.27 -16.68 L -48.30 -19.32 L -47.18 -21.90 L -45.93 -24.42 L -44.54 -26.87 L -43.02 -29.24 L -41.38 -31.52 L -39.61 -33.71 L -37.73 -35.81 L -35.74 -37.80 L -33.65 -39.67 L -31.45 -41.43 L -29.16 -43.08 L -26.79 -44.59 L -24.34 -45.97 L -21.82 -47.22 L -19.23 -48.33 L -16.59 -49.30 L -13.90 -50.13 L -11.17 -50.81 L -8.41 -51.34 L -5.62 -51.71 L -2.81 -51.94 L -0.00 -52.02 L 2.81 -51.94 L 5.62 -51.71 L 8.41 -51.34 L 11.17 -50.81 L 13.90 -50.13 L 16.59 -49.30 L 19.23 -48.33 L 21.82 -47.22 L 24.34 -45.97 L 26.79 -44.59 L 29.16 -43.08 L 31.45 -41.43 L 33.65 -39.67 L 35.74 -37.80 L 37.73 -35.81 L 39.61 -33.71 L 41.38 -31.52 L 43.02 -29.24 L 44.54 -26.87 L 45.93 -24.42 L 47.18 -21.90 L 48.30 -19.32 L 49.27 -16.68 L 50.10 -13.99 L 50.79 -11.26 L 51.32 -8.50 L 51.71 -5.71 L 51.94 -2.90 L 52.02 -0.09 L 51.87 2.72 L 51.57 5.51 L 51.20 8.29 L 50.78 11.07 L 50.31 13.86 L 49.70 16.63 L 48.89 19.36 L 47.78 21.98 L 46.36 24.44 L 44.66 26.73 L 42.78 28.86 L 40.85 30.90 L 38.98 32.94 L 37.21 35.07 L 35.53 37.31 L 33.84 39.62 L 32.02 41.88 L 29.96 43.92 L 27.62 45.60 L 25.00 46.82 L 22.19 47.59 L 21.14 45.32 L 23.82 44.61 L 26.32 43.46 L 28.55 41.86 L 30.50 39.89 L 32.22 37.72 L 33.81 35.50 L 35.40 33.35 L 37.07 31.33 L 38.86 29.39 L 40.71 27.46 L 42.51 25.44 L 44.14 23.27 L 45.51 20.93 L 46.56 18.43 L 47.33 15.84 L 47.89 13.19 L 48.34 10.54 L 48.73 7.89 L 49.09 5.25 L 49.37 2.59 L 49.52 -0.09 L 49.44 -2.76 L 49.22 -5.43 L 48.85 -8.09 L 48.35 -10.72 L 47.70 -13.32 L 46.91 -15.88 L 45.98 -18.39 L 44.92 -20.85 L 43.72 -23.25 L 42.40 -25.58 L 40.96 -27.83 L 39.39 -30.01 L 37.71 -32.09 L 35.92 -34.09 L 34.02 -35.98 L 32.03 -37.77 L 29.94 -39.44 L 27.76 -41.00 L 25.50 -42.45 L 23.17 -43.76 L 20.77 -44.95 L 18.31 -46.01 L 15.79 -46.93 L 13.23 -47.72 L 10.63 -48.36 L 8.00 -48.87 L 5.35 -49.23 L 2.68 -49.45 L -0.00 -49.52 L -2.68 -49.45 L -5.35 -49.23 L -8.00 -48.87 L -10.63 -48.36 L -13.23 -47.72 L -15.79 -46.93 L -18.31 -46.01 L -20.77 -44.95 L -23.17 -43.76 L -25.50 -42.45 L -27.76 -41.00 L -29.94 -39.44 L -32.03 -37.77 L -34.02 -35.98 L -35.92 -34.09 L -37.71 -32.09 L -39.39 -30.01 L -40.96 -27.83 L -42.40 -25.58 L -43.72 -23.25 L -44.92 -20.85 L -45.98 -18.39 L -46.91 -15.88 L -47.70 -13.32 L -48.35 -10.72 L -48.85 -8.09 L -49.22 -5.43 L -49.44 -2.76 L -49.52 -0.09 L -49.43 2.59 L -49.27 5.27 L -49.05 7.94 L -48.69 10.62 L -48.12 13.25 L -47.28 15.82 L -46.16 18.28 L -44.81 20.61 L -43.33 22.85 L -41.83 25.03 L -40.39 27.25 L -39.04 29.53 L -37.73 31.88 L -36.35 34.25 L -34.77 36.51 L -32.91 38.53 L -30.73 40.20 L -28.28 41.46 L -25.67 42.38 L -23.01 43.09 L -20.42 43.79 Z" fill="#D4AF37" />
  <path d="M -25.19 54.03 L -28.46 53.30 L -31.59 52.17 L -34.47 50.52 L -37.00 48.39 L -39.19 45.89 L -41.14 43.20 L -42.97 40.50 L -44.83 37.88 L -46.79 35.38 L -48.85 32.95 L -50.94 30.49 L -52.93 27.90 L -54.67 25.15 L -56.08 22.21 L -57.14 19.12 L -57.90 15.95 L -58.44 12.74 L -58.87 9.54 L -59.24 6.33 L -59.54 3.12 L -59.71 -0.10 L -59.62 -3.33 L -59.35 -6.55 L -58.91 -9.75 L -58.30 -12.92 L -57.51 -16.06 L -56.56 -19.14 L -55.44 -22.17 L -54.16 -25.14 L -52.72 -28.03 L -51.13 -30.84 L -49.39 -33.56 L -47.50 -36.18 L -45.47 -38.70 L -43.31 -41.10 L -41.03 -43.38 L -38.62 -45.54 L -36.10 -47.56 L -33.48 -49.44 L -30.75 -51.18 L -27.94 -52.77 L -25.05 -54.20 L -22.08 -55.48 L -19.05 -56.59 L -15.96 -57.54 L -12.82 -58.32 L -9.65 -58.93 L -6.45 -59.36 L -3.23 -59.62 L -0.00 -59.71 L 3.23 -59.62 L 6.45 -59.36 L 9.65 -58.93 L 12.82 -58.32 L 15.96 -57.54 L 19.05 -56.59 L 22.08 -55.48 L 25.05 -54.20 L 27.94 -52.77 L 30.75 -51.18 L 33.48 -49.44 L 36.10 -47.56 L 38.62 -45.54 L 41.03 -43.38 L 43.31 -41.10 L 45.47 -38.70 L 47.50 -36.18 L 49.39 -33.56 L 51.13 -30.84 L 52.72 -28.03 L 54.16 -25.14 L 55.44 -22.17 L 56.56 -19.14 L 57.51 -16.06 L 58.30 -12.92 L 58.91 -9.75 L 59.35 -6.55 L 59.62 -3.33 L 59.71 -0.10 L 59.57 3.12 L 59.33 6.34 L 59.03 9.56 L 58.62 12.78 L 58.01 15.98 L 57.12 19.11 L 55.88 22.13 L 54.32 24.99 L 52.52 27.69 L 50.60 30.28 L 48.69 32.84 L 46.88 35.45 L 45.16 38.16 L 43.45 40.94 L 41.62 43.71 L 39.54 46.30 L 37.11 48.54 L 34.33 50.33 L 31.27 51.63 L 28.06 52.54 L 24.84 53.26 L 23.78 50.99 L 26.88 50.34 L 29.97 49.49 L 32.92 48.26 L 35.59 46.56 L 37.92 44.40 L 39.90 41.90 L 41.63 39.23 L 43.25 36.55 L 44.88 33.94 L 46.62 31.44 L 48.45 29.00 L 50.31 26.52 L 52.05 23.94 L 53.56 21.21 L 54.75 18.32 L 55.60 15.31 L 56.18 12.25 L 56.56 9.16 L 56.85 6.08 L 57.07 2.99 L 57.21 -0.10 L 57.12 -3.19 L 56.87 -6.28 L 56.44 -9.34 L 55.86 -12.38 L 55.10 -15.39 L 54.19 -18.34 L 53.12 -21.25 L 51.89 -24.09 L 50.51 -26.86 L 48.99 -29.55 L 47.32 -32.16 L 45.51 -34.67 L 43.57 -37.08 L 41.50 -39.38 L 39.31 -41.57 L 37.00 -43.63 L 34.59 -45.57 L 32.08 -47.37 L 29.47 -49.04 L 26.77 -50.56 L 24.00 -51.94 L 21.15 -53.16 L 18.25 -54.22 L 15.29 -55.13 L 12.29 -55.88 L 9.25 -56.46 L 6.18 -56.88 L 3.09 -57.13 L -0.00 -57.21 L -3.09 -57.13 L -6.18 -56.88 L -9.25 -56.46 L -12.29 -55.88 L -15.29 -55.13 L -18.25 -54.22 L -21.15 -53.16 L -24.00 -51.94 L -26.77 -50.56 L -29.47 -49.04 L -32.08 -47.37 L -34.59 -45.57 L -37.00 -43.63 L -39.31 -41.57 L -41.50 -39.38 L -43.57 -37.08 L -45.51 -34.67 L -47.32 -32.16 L -48.99 -29.55 L -50.51 -26.86 L -51.89 -24.09 L -53.12 -21.25 L -54.19 -18.34 L -55.10 -15.39 L -55.86 -12.38 L -56.44 -9.34 L -56.87 -6.28 L -57.12 -3.19 L -57.21 -0.10 L -57.04 2.99 L -56.76 6.07 L -56.41 9.14 L -56.00 12.21 L -55.49 15.28 L -54.77 18.33 L -53.76 21.28 L -52.40 24.10 L -50.71 26.74 L -48.80 29.20 L -46.78 31.55 L -44.79 33.88 L -42.92 36.27 L -41.15 38.78 L -39.42 41.39 L -37.57 43.99 L -35.48 46.40 L -33.06 48.46 L -30.30 50.03 L -27.28 51.10 L -24.14 51.76 Z" fill="#D4AF37" />
  <path d="M -29.10 62.40 L -32.57 61.00 L -35.71 58.96 L -38.49 56.42 L -40.98 53.60 L -43.30 50.70 L -45.63 47.91 L -48.06 45.29 L -50.65 42.80 L -53.32 40.33 L -55.94 37.73 L -58.34 34.91 L -60.37 31.83 L -61.99 28.51 L -63.21 25.03 L -64.14 21.46 L -64.90 17.88 L -65.59 14.30 L -66.24 10.73 L -66.82 7.14 L -67.24 3.52 L -67.40 -0.12 L -67.30 -3.76 L -67.00 -7.40 L -66.50 -11.01 L -65.81 -14.59 L -64.92 -18.13 L -63.85 -21.61 L -62.58 -25.03 L -61.14 -28.38 L -59.51 -31.64 L -57.72 -34.82 L -55.75 -37.89 L -53.62 -40.85 L -51.33 -43.69 L -48.89 -46.40 L -46.31 -48.97 L -43.60 -51.41 L -40.75 -53.69 L -37.79 -55.81 L -34.72 -57.78 L -31.54 -59.57 L -28.27 -61.19 L -24.92 -62.63 L -21.50 -63.88 L -18.01 -64.95 L -14.47 -65.83 L -10.89 -66.52 L -7.28 -67.01 L -3.65 -67.31 L -0.00 -67.40 L 3.65 -67.31 L 7.28 -67.01 L 10.89 -66.52 L 14.47 -65.83 L 18.01 -64.95 L 21.50 -63.88 L 24.92 -62.63 L 28.27 -61.19 L 31.54 -59.57 L 34.72 -57.78 L 37.79 -55.81 L 40.75 -53.69 L 43.60 -51.41 L 46.31 -48.97 L 48.89 -46.40 L 51.33 -43.69 L 53.62 -40.85 L 55.75 -37.89 L 57.72 -34.82 L 59.51 -31.64 L 61.14 -28.38 L 62.58 -25.03 L 63.85 -21.61 L 64.92 -18.13 L 65.81 -14.59 L 66.50 -11.01 L 67.00 -7.40 L 67.30 -3.76 L 67.40 -0.12 L 67.34 3.53 L 67.17 7.18 L 66.84 10.83 L 66.25 14.45 L 65.33 17.99 L 64.04 21.43 L 62.44 24.72 L 60.65 27.90 L 58.81 31.01 L 57.03 34.13 L 55.34 37.33 L 53.67 40.59 L 51.91 43.87 L 49.88 47.01 L 47.47 49.85 L 44.63 52.26 L 41.42 54.18 L 37.97 55.66 L 34.45 56.89 L 31.01 58.09 L 27.73 59.46 L 26.67 57.20 L 29.84 55.88 L 33.16 54.75 L 36.56 53.60 L 39.90 52.19 L 43.01 50.36 L 45.75 48.04 L 48.06 45.29 L 50.00 42.25 L 51.68 39.08 L 53.26 35.93 L 54.89 32.85 L 56.60 29.84 L 58.38 26.85 L 60.12 23.80 L 61.67 20.63 L 62.91 17.33 L 63.81 13.91 L 64.37 10.43 L 64.68 6.91 L 64.84 3.40 L 64.90 -0.11 L 64.80 -3.62 L 64.51 -7.12 L 64.03 -10.60 L 63.37 -14.05 L 62.51 -17.45 L 61.48 -20.81 L 60.26 -24.10 L 58.87 -27.33 L 57.31 -30.47 L 55.58 -33.52 L 53.68 -36.48 L 51.63 -39.33 L 49.43 -42.07 L 47.08 -44.68 L 44.59 -47.16 L 41.98 -49.50 L 39.24 -51.70 L 36.39 -53.74 L 33.43 -55.63 L 30.37 -57.36 L 27.22 -58.92 L 24.00 -60.30 L 20.70 -61.51 L 17.34 -62.54 L 13.94 -63.39 L 10.49 -64.05 L 7.01 -64.52 L 3.51 -64.81 L -0.00 -64.90 L -3.51 -64.81 L -7.01 -64.52 L -10.49 -64.05 L -13.94 -63.39 L -17.34 -62.54 L -20.70 -61.51 L -24.00 -60.30 L -27.22 -58.92 L -30.37 -57.36 L -33.43 -55.63 L -36.39 -53.74 L -39.24 -51.70 L -41.98 -49.50 L -44.59 -47.16 L -47.08 -44.68 L -49.43 -42.07 L -51.63 -39.33 L -53.68 -36.48 L -55.58 -33.52 L -57.31 -30.47 L -58.87 -27.33 L -60.26 -24.10 L -61.48 -20.81 L -62.51 -17.45 L -63.37 -14.05 L -64.03 -10.60 L -64.51 -7.12 L -64.80 -3.62 L -64.90 -0.11 L -64.74 3.39 L -64.33 6.88 L -63.77 10.33 L -63.14 13.77 L -62.49 17.21 L -61.77 20.67 L -60.88 24.11 L -59.71 27.47 L -58.16 30.66 L -56.19 33.63 L -53.87 36.33 L -51.33 38.82 L -48.74 41.19 L -46.24 43.58 L -43.90 46.10 L -41.68 48.80 L -39.46 51.61 L -37.08 54.36 L -34.41 56.82 L -31.39 58.79 L -28.04 60.14 Z" fill="#D4AF37" />
  <path d="M -32.53 69.76 L -35.94 67.30 L -39.02 64.43 L -41.90 61.42 L -44.74 58.51 L -47.68 55.83 L -50.80 53.35 L -54.07 50.95 L -57.34 48.46 L -60.43 45.70 L -63.16 42.60 L -65.41 39.15 L -67.19 35.43 L -68.59 31.55 L -69.76 27.62 L -70.82 23.70 L -71.88 19.80 L -72.92 15.90 L -73.86 11.96 L -74.59 7.97 L -75.02 3.93 L -75.10 -0.13 L -74.98 -4.19 L -74.64 -8.24 L -74.09 -12.27 L -73.32 -16.25 L -72.33 -20.19 L -71.13 -24.08 L -69.73 -27.89 L -68.12 -31.62 L -66.31 -35.26 L -64.30 -38.79 L -62.11 -42.21 L -59.74 -45.51 L -57.19 -48.67 L -54.47 -51.69 L -51.60 -54.56 L -48.57 -57.27 L -45.40 -59.82 L -42.10 -62.18 L -38.68 -64.37 L -35.14 -66.37 L -31.50 -68.17 L -27.77 -69.77 L -23.95 -71.17 L -20.07 -72.36 L -16.13 -73.34 L -12.14 -74.11 L -8.11 -74.66 L -4.06 -74.99 L -0.00 -75.10 L 4.06 -74.99 L 8.11 -74.66 L 12.14 -74.11 L 16.13 -73.34 L 20.07 -72.36 L 23.95 -71.17 L 27.77 -69.77 L 31.50 -68.17 L 35.14 -66.37 L 38.68 -64.37 L 42.10 -62.18 L 45.40 -59.82 L 48.57 -57.27 L 51.60 -54.56 L 54.47 -51.69 L 57.19 -48.67 L 59.74 -45.51 L 62.11 -42.21 L 64.30 -38.79 L 66.31 -35.26 L 68.12 -31.62 L 69.73 -27.89 L 71.13 -24.08 L 72.33 -20.19 L 73.32 -16.25 L 74.09 -12.27 L 74.64 -8.24 L 74.98 -4.19 L 75.10 -0.13 L 75.10 3.94 L 74.90 8.00 L 74.39 12.05 L 73.50 16.03 L 72.25 19.90 L 70.74 23.67 L 69.08 27.35 L 67.43 31.01 L 65.83 34.71 L 64.27 38.46 L 62.63 42.24 L 60.74 45.93 L 58.44 49.39 L 55.66 52.45 L 52.42 55.05 L 48.85 57.19 L 45.13 59.02 L 41.44 60.75 L 37.92 62.61 L 34.57 64.75 L 31.33 67.18 L 30.27 64.91 L 33.40 62.55 L 36.63 60.48 L 40.03 58.69 L 43.61 57.04 L 47.22 55.29 L 50.70 53.24 L 53.84 50.74 L 56.53 47.77 L 58.74 44.43 L 60.55 40.84 L 62.12 37.18 L 63.62 33.54 L 65.15 29.97 L 66.76 26.43 L 68.36 22.87 L 69.84 19.24 L 71.06 15.49 L 71.92 11.65 L 72.41 7.74 L 72.61 3.81 L 72.60 -0.13 L 72.48 -4.05 L 72.16 -7.97 L 71.62 -11.86 L 70.88 -15.71 L 69.92 -19.52 L 68.76 -23.28 L 67.40 -26.96 L 65.85 -30.57 L 64.10 -34.08 L 62.16 -37.50 L 60.04 -40.81 L 57.75 -43.99 L 55.28 -47.05 L 52.66 -49.97 L 49.88 -52.75 L 46.95 -55.37 L 43.89 -57.83 L 40.70 -60.11 L 37.39 -62.23 L 33.97 -64.16 L 30.45 -65.90 L 26.84 -67.45 L 23.16 -68.80 L 19.40 -69.96 L 15.59 -70.90 L 11.73 -71.64 L 7.84 -72.17 L 3.93 -72.49 L -0.00 -72.60 L -3.93 -72.49 L -7.84 -72.17 L -11.73 -71.64 L -15.59 -70.90 L -19.40 -69.96 L -23.16 -68.80 L -26.84 -67.45 L -30.45 -65.90 L -33.97 -64.16 L -37.39 -62.23 L -40.70 -60.11 L -43.89 -57.83 L -46.95 -55.37 L -49.88 -52.75 L -52.66 -49.97 L -55.28 -47.05 L -57.75 -43.99 L -60.04 -40.81 L -62.16 -37.50 L -64.10 -34.08 L -65.85 -30.57 L -67.40 -26.96 L -68.76 -23.28 L -69.92 -19.52 L -70.88 -15.71 L -71.62 -11.86 L -72.16 -7.97 L -72.48 -4.05 L -72.60 -0.13 L -72.52 3.80 L -72.11 7.71 L -71.39 11.56 L -70.47 15.37 L -69.47 19.13 L -68.45 22.90 L -67.43 26.70 L -66.32 30.50 L -64.98 34.26 L -63.27 37.86 L -61.08 41.20 L -58.44 44.19 L -55.43 46.84 L -52.25 49.24 L -49.08 51.54 L -46.06 53.92 L -43.22 56.53 L -40.49 59.35 L -37.73 62.29 L -34.76 65.10 L -31.47 67.49 Z" fill="#D4AF37" />
  <path d="M -35.18 75.44 L -38.66 72.40 L -42.05 69.44 L -45.53 66.74 L -49.19 64.34 L -53.05 62.11 L -56.97 59.83 L -60.77 57.27 L -64.24 54.28 L -67.21 50.83 L -69.63 46.97 L -71.59 42.84 L -73.23 38.61 L -74.73 34.37 L -76.23 30.18 L -77.78 26.02 L -79.30 21.84 L -80.68 17.59 L -81.77 13.24 L -82.48 8.81 L -82.79 4.34 L -82.79 -0.14 L -82.66 -4.62 L -82.29 -9.08 L -81.68 -13.52 L -80.83 -17.92 L -79.74 -22.26 L -78.42 -26.54 L -76.87 -30.74 L -75.09 -34.86 L -73.10 -38.87 L -70.89 -42.76 L -68.47 -46.53 L -65.86 -50.17 L -63.05 -53.66 L -60.05 -56.99 L -56.88 -60.15 L -53.55 -63.14 L -50.05 -65.94 L -46.41 -68.55 L -42.64 -70.96 L -38.74 -73.17 L -34.73 -75.15 L -30.61 -76.92 L -26.41 -78.46 L -22.12 -79.78 L -17.78 -80.86 L -13.38 -81.70 L -8.94 -82.30 L -4.48 -82.67 L -0.00 -82.79 L 4.48 -82.67 L 8.94 -82.30 L 13.38 -81.70 L 17.78 -80.86 L 22.12 -79.78 L 26.41 -78.46 L 30.61 -76.92 L 34.73 -75.15 L 38.74 -73.17 L 42.64 -70.96 L 46.41 -68.55 L 50.05 -65.94 L 53.55 -63.14 L 56.88 -60.15 L 60.05 -56.99 L 63.05 -53.66 L 65.86 -50.17 L 68.47 -46.53 L 70.89 -42.76 L 73.10 -38.87 L 75.09 -34.86 L 76.87 -30.74 L 78.42 -26.54 L 79.74 -22.26 L 80.83 -17.92 L 81.68 -13.52 L 82.29 -9.08 L 82.66 -4.62 L 82.79 -0.14 L 82.78 4.34 L 82.41 8.81 L 81.65 13.23 L 80.55 17.56 L 79.22 21.82 L 77.79 26.03 L 76.38 30.24 L 74.98 34.49 L 73.52 38.76 L 71.83 42.99 L 69.75 47.04 L 67.14 50.78 L 64.00 54.09 L 60.43 56.95 L 56.63 59.46 L 52.80 61.82 L 49.11 64.23 L 45.62 66.88 L 42.29 69.82 L 38.95 72.94 L 35.43 75.99 L 34.38 73.72 L 37.77 70.74 L 40.99 67.68 L 44.22 64.82 L 47.59 62.25 L 51.17 59.92 L 54.90 57.65 L 58.62 55.24 L 62.09 52.47 L 65.15 49.27 L 67.67 45.65 L 69.69 41.71 L 71.31 37.60 L 72.71 33.44 L 74.05 29.32 L 75.42 25.24 L 76.81 21.16 L 78.11 17.03 L 79.19 12.83 L 79.92 8.54 L 80.28 4.21 L 80.29 -0.14 L 80.16 -4.48 L 79.80 -8.81 L 79.21 -13.11 L 78.39 -17.38 L 77.33 -21.59 L 76.05 -25.74 L 74.55 -29.82 L 72.83 -33.80 L 70.89 -37.69 L 68.75 -41.47 L 66.41 -45.13 L 63.87 -48.65 L 61.14 -52.04 L 58.24 -55.27 L 55.17 -58.34 L 51.93 -61.23 L 48.54 -63.95 L 45.01 -66.48 L 41.35 -68.82 L 37.57 -70.96 L 33.68 -72.88 L 29.69 -74.60 L 25.61 -76.09 L 21.46 -77.37 L 17.24 -78.42 L 12.97 -79.23 L 8.67 -79.82 L 4.34 -80.17 L -0.00 -80.29 L -4.34 -80.17 L -8.67 -79.82 L -12.97 -79.23 L -17.24 -78.42 L -21.46 -77.37 L -25.61 -76.09 L -29.69 -74.60 L -33.68 -72.88 L -37.57 -70.96 L -41.35 -68.82 L -45.01 -66.48 L -48.54 -63.95 L -51.93 -61.23 L -55.17 -58.34 L -58.24 -55.27 L -61.14 -52.04 L -63.87 -48.65 L -66.41 -45.13 L -68.75 -41.47 L -70.89 -37.69 L -72.83 -33.80 L -74.55 -29.82 L -76.05 -25.74 L -77.33 -21.59 L -78.39 -17.38 L -79.21 -13.11 L -79.80 -8.81 L -80.16 -4.48 L -80.29 -0.14 L -80.30 4.21 L -79.99 8.55 L -79.30 12.84 L -78.23 17.06 L -76.89 21.18 L -75.40 25.23 L -73.91 29.26 L -72.46 33.33 L -71.02 37.44 L -69.44 41.56 L -67.56 45.57 L -65.21 49.32 L -62.33 52.67 L -58.95 55.56 L -55.25 58.02 L -51.42 60.21 L -47.67 62.35 L -44.12 64.68 L -40.76 67.30 L -37.48 70.19 L -34.12 73.17 Z" fill="#D4AF37" />
  <path d="M -37.51 80.43 L -41.54 77.79 L -45.74 75.53 L -50.17 73.54 L -54.72 71.58 L -59.23 69.35 L -63.45 66.62 L -67.17 63.30 L -70.32 59.42 L -72.91 55.14 L -75.11 50.66 L -77.11 46.15 L -79.10 41.71 L -81.19 37.34 L -83.33 32.99 L -85.41 28.58 L -87.25 24.03 L -88.70 19.34 L -89.70 14.53 L -90.25 9.64 L -90.47 4.74 L -90.48 -0.16 L -90.34 -5.05 L -89.93 -9.93 L -89.27 -14.78 L -88.34 -19.58 L -87.15 -24.33 L -85.70 -29.01 L -84.01 -33.60 L -82.07 -38.10 L -79.89 -42.48 L -77.48 -46.74 L -74.83 -50.86 L -71.98 -54.83 L -68.90 -58.64 L -65.63 -62.28 L -62.17 -65.74 L -58.52 -69.01 L -54.70 -72.07 L -50.73 -74.92 L -46.60 -77.56 L -42.34 -79.96 L -37.95 -82.14 L -33.45 -84.07 L -28.86 -85.75 L -24.18 -87.19 L -19.43 -88.37 L -14.62 -89.29 L -9.77 -89.95 L -4.89 -90.35 L -0.00 -90.48 L 4.89 -90.35 L 9.77 -89.95 L 14.62 -89.29 L 19.43 -88.37 L 24.18 -87.19 L 28.86 -85.75 L 33.45 -84.07 L 37.95 -82.14 L 42.34 -79.96 L 46.60 -77.56 L 50.73 -74.92 L 54.70 -72.07 L 58.52 -69.01 L 62.17 -65.74 L 65.63 -62.28 L 68.90 -58.64 L 71.98 -54.83 L 74.83 -50.86 L 77.48 -46.74 L 79.89 -42.48 L 82.07 -38.10 L 84.01 -33.60 L 85.70 -29.01 L 87.15 -24.33 L 88.34 -19.58 L 89.27 -14.78 L 89.93 -9.93 L 90.34 -5.05 L 90.48 -0.16 L 90.34 4.73 L 89.80 9.60 L 88.93 14.40 L 87.85 19.16 L 86.70 23.88 L 85.54 28.62 L 84.31 33.38 L 82.89 38.13 L 81.10 42.76 L 78.78 47.15 L 75.88 51.18 L 72.46 54.80 L 68.71 58.06 L 64.85 61.11 L 61.08 64.14 L 57.53 67.35 L 54.15 70.83 L 50.83 74.51 L 47.35 78.18 L 43.52 81.51 L 39.26 84.20 L 38.20 81.93 L 42.35 79.31 L 46.05 76.04 L 49.42 72.45 L 52.64 68.85 L 55.90 65.45 L 59.36 62.33 L 63.03 59.39 L 66.80 56.45 L 70.47 53.30 L 73.81 49.78 L 76.63 45.86 L 78.89 41.59 L 80.62 37.08 L 81.99 32.46 L 83.17 27.83 L 84.29 23.22 L 85.41 18.62 L 86.46 14.00 L 87.31 9.33 L 87.85 4.60 L 87.98 -0.15 L 87.84 -4.91 L 87.45 -9.65 L 86.80 -14.37 L 85.90 -19.04 L 84.74 -23.66 L 83.34 -28.21 L 81.69 -32.67 L 79.80 -37.04 L 77.68 -41.30 L 75.34 -45.44 L 72.77 -49.45 L 69.99 -53.32 L 67.00 -57.02 L 63.82 -60.56 L 60.45 -63.92 L 56.91 -67.10 L 53.19 -70.08 L 49.33 -72.85 L 45.31 -75.41 L 41.17 -77.75 L 36.90 -79.87 L 32.53 -81.75 L 28.06 -83.39 L 23.51 -84.78 L 18.89 -85.93 L 14.22 -86.82 L 9.50 -87.47 L 4.76 -87.85 L -0.00 -87.98 L -4.76 -87.85 L -9.50 -87.47 L -14.22 -86.82 L -18.89 -85.93 L -23.51 -84.78 L -28.06 -83.39 L -32.53 -81.75 L -36.90 -79.87 L -41.17 -77.75 L -45.31 -75.41 L -49.33 -72.85 L -53.19 -70.08 L -56.91 -67.10 L -60.45 -63.92 L -63.82 -60.56 L -67.00 -57.02 L -69.99 -53.32 L -72.77 -49.45 L -75.34 -45.44 L -77.68 -41.30 L -79.80 -37.04 L -81.69 -32.67 L -83.34 -28.21 L -84.74 -23.66 L -85.90 -19.04 L -86.80 -14.37 L -87.45 -9.65 L -87.84 -4.91 L -87.98 -0.15 L -87.97 4.61 L -87.76 9.38 L -87.23 14.13 L -86.26 18.81 L -84.84 23.37 L -83.04 27.78 L -81.01 32.07 L -78.92 36.30 L -76.89 40.54 L -74.96 44.86 L -73.03 49.26 L -70.92 53.63 L -68.41 57.81 L -65.36 61.59 L -61.72 64.81 L -57.61 67.45 L -53.21 69.59 L -48.76 71.47 L -44.45 73.39 L -40.36 75.58 L -36.45 78.17 Z" fill="#D4AF37" />
  <path d="M -40.40 86.65 L -45.37 84.97 L -50.52 83.42 L -55.70 81.65 L -60.65 79.33 L -65.16 76.30 L -69.08 72.54 L -72.38 68.21 L -75.21 63.56 L -77.78 58.82 L -80.31 54.17 L -82.96 49.65 L -85.75 45.21 L -88.57 40.74 L -91.23 36.12 L -93.51 31.29 L -95.29 26.25 L -96.52 21.05 L -97.30 15.76 L -97.76 10.45 L -98.03 5.14 L -98.17 -0.17 L -98.02 -5.48 L -97.58 -10.77 L -96.85 -16.03 L -95.85 -21.25 L -94.56 -26.40 L -92.99 -31.48 L -91.15 -36.46 L -89.05 -41.33 L -86.68 -46.09 L -84.06 -50.71 L -81.20 -55.18 L -78.09 -59.49 L -74.76 -63.63 L -71.21 -67.58 L -67.45 -71.33 L -63.50 -74.87 L -59.36 -78.20 L -55.04 -81.29 L -50.56 -84.15 L -45.94 -86.76 L -41.18 -89.12 L -36.30 -91.22 L -31.31 -93.05 L -26.24 -94.60 L -21.08 -95.88 L -15.87 -96.88 L -10.60 -97.60 L -5.31 -98.03 L -0.00 -98.17 L 5.31 -98.03 L 10.60 -97.60 L 15.87 -96.88 L 21.08 -95.88 L 26.24 -94.60 L 31.31 -93.05 L 36.30 -91.22 L 41.18 -89.12 L 45.94 -86.76 L 50.56 -84.15 L 55.04 -81.29 L 59.36 -78.20 L 63.50 -74.87 L 67.45 -71.33 L 71.21 -67.58 L 74.76 -63.63 L 78.09 -59.49 L 81.20 -55.18 L 84.06 -50.71 L 86.68 -46.09 L 89.05 -41.33 L 91.15 -36.46 L 92.99 -31.48 L 94.56 -26.40 L 95.85 -21.25 L 96.85 -16.03 L 97.58 -10.77 L 98.02 -5.48 L 98.17 -0.17 L 97.90 5.13 L 97.31 10.40 L 96.53 15.64 L 95.67 20.86 L 94.74 26.10 L 93.64 31.33 L 92.21 36.51 L 90.28 41.52 L 87.75 46.26 L 84.64 50.65 L 81.09 54.69 L 77.33 58.48 L 73.60 62.20 L 70.05 66.01 L 66.71 70.05 L 63.46 74.30 L 60.08 78.59 L 56.36 82.62 L 52.13 86.07 L 47.36 88.70 L 42.16 90.41 L 41.10 88.15 L 46.18 86.49 L 50.83 83.94 L 54.95 80.55 L 58.57 76.60 L 61.84 72.40 L 64.99 68.24 L 68.23 64.30 L 71.69 60.58 L 75.34 56.98 L 79.01 53.30 L 82.49 49.37 L 85.54 45.10 L 88.01 40.48 L 89.88 35.59 L 91.27 30.54 L 92.33 25.43 L 93.23 20.33 L 94.07 15.24 L 94.82 10.13 L 95.41 5.00 L 95.67 -0.17 L 95.52 -5.34 L 95.10 -10.50 L 94.39 -15.63 L 93.41 -20.71 L 92.15 -25.73 L 90.62 -30.67 L 88.83 -35.53 L 86.78 -40.28 L 84.47 -44.92 L 81.92 -49.42 L 79.13 -53.78 L 76.11 -57.98 L 72.86 -62.01 L 69.40 -65.86 L 65.74 -69.51 L 61.88 -72.97 L 57.84 -76.21 L 53.64 -79.22 L 49.28 -82.01 L 44.77 -84.55 L 40.13 -86.85 L 35.37 -88.89 L 30.52 -90.68 L 25.57 -92.19 L 20.54 -93.44 L 15.46 -94.42 L 10.33 -95.11 L 5.17 -95.53 L -0.00 -95.67 L -5.17 -95.53 L -10.33 -95.11 L -15.46 -94.42 L -20.54 -93.44 L -25.57 -92.19 L -30.52 -90.68 L -35.37 -88.89 L -40.13 -86.85 L -44.77 -84.55 L -49.28 -82.01 L -53.64 -79.22 L -57.84 -76.21 L -61.88 -72.97 L -65.74 -69.51 L -69.40 -65.86 L -72.86 -62.01 L -76.11 -57.98 L -79.13 -53.78 L -81.92 -49.42 L -84.47 -44.92 L -86.78 -40.28 L -88.83 -35.53 L -90.62 -30.67 L -92.15 -25.73 L -93.41 -20.71 L -94.39 -15.63 L -95.10 -10.50 L -95.52 -5.34 L -95.67 -0.17 L -95.53 5.01 L -95.28 10.18 L -94.84 15.36 L -94.08 20.51 L -92.88 25.58 L -91.14 30.49 L -88.90 35.20 L -86.30 39.69 L -83.54 44.05 L -80.82 48.37 L -78.24 52.77 L -75.78 57.32 L -73.30 61.94 L -70.56 66.49 L -67.35 70.73 L -63.54 74.39 L -59.13 77.35 L -54.29 79.58 L -49.23 81.28 L -44.19 82.77 L -39.35 84.38 Z" fill="#D4AF37" />
  <path d="M -44.33 95.08 L -50.12 93.86 L -55.78 92.10 L -61.06 89.51 L -65.77 86.02 L -69.85 81.78 L -73.38 77.06 L -76.58 72.17 L -79.71 67.36 L -82.95 62.74 L -86.40 58.28 L -89.97 53.85 L -93.47 49.28 L -96.65 44.45 L -99.30 39.32 L -101.34 33.91 L -102.78 28.31 L -103.79 22.63 L -104.52 16.93 L -105.10 11.23 L -105.58 5.53 L -105.87 -0.18 L -105.70 -5.91 L -105.23 -11.62 L -104.44 -17.29 L -103.36 -22.91 L -101.97 -28.47 L -100.28 -33.94 L -98.29 -39.31 L -96.02 -44.57 L -93.47 -49.70 L -90.65 -54.68 L -87.56 -59.51 L -84.21 -64.15 L -80.62 -68.61 L -76.79 -72.87 L -72.74 -76.92 L -68.47 -80.74 L -64.01 -84.32 L -59.35 -87.66 L -54.52 -90.74 L -49.54 -93.56 L -44.41 -96.10 L -39.14 -98.36 L -33.77 -100.34 L -28.29 -102.02 L -22.73 -103.40 L -17.11 -104.47 L -11.43 -105.25 L -5.73 -105.71 L -0.00 -105.87 L 5.73 -105.71 L 11.43 -105.25 L 17.11 -104.47 L 22.73 -103.40 L 28.29 -102.02 L 33.77 -100.34 L 39.14 -98.36 L 44.41 -96.10 L 49.54 -93.56 L 54.52 -90.74 L 59.35 -87.66 L 64.01 -84.32 L 68.47 -80.74 L 72.74 -76.92 L 76.79 -72.87 L 80.62 -68.61 L 84.21 -64.15 L 87.56 -59.51 L 90.65 -54.68 L 93.47 -49.70 L 96.02 -44.57 L 98.29 -39.31 L 100.28 -33.94 L 101.97 -28.47 L 103.36 -22.91 L 104.44 -17.29 L 105.23 -11.62 L 105.70 -5.91 L 105.87 -0.18 L 105.58 5.53 L 105.11 11.23 L 104.52 16.93 L 103.79 22.63 L 102.79 28.31 L 101.34 33.91 L 99.30 39.31 L 96.64 44.45 L 93.46 49.28 L 89.96 53.84 L 86.40 58.28 L 82.96 62.74 L 79.71 67.36 L 76.59 72.18 L 73.39 77.07 L 69.85 81.79 L 65.77 86.02 L 61.05 89.50 L 55.77 92.08 L 50.11 93.84 L 44.32 95.05 L 43.27 92.79 L 48.93 91.64 L 54.47 89.94 L 59.64 87.44 L 64.25 84.04 L 68.23 79.89 L 71.67 75.26 L 74.78 70.46 L 77.80 65.75 L 80.96 61.23 L 84.32 56.88 L 87.82 52.56 L 91.25 48.11 L 94.37 43.40 L 96.97 38.39 L 98.96 33.11 L 100.38 27.65 L 101.35 22.10 L 102.06 16.53 L 102.62 10.97 L 103.08 5.40 L 103.37 -0.18 L 103.20 -5.77 L 102.74 -11.34 L 101.98 -16.88 L 100.92 -22.37 L 99.56 -27.80 L 97.91 -33.14 L 95.97 -38.39 L 93.76 -43.52 L 91.27 -48.53 L 88.51 -53.39 L 85.49 -58.10 L 82.22 -62.64 L 78.72 -66.99 L 74.98 -71.15 L 71.02 -75.10 L 66.86 -78.83 L 62.49 -82.33 L 57.95 -85.59 L 53.24 -88.60 L 48.37 -91.35 L 43.36 -93.83 L 38.22 -96.04 L 32.97 -97.97 L 27.62 -99.61 L 22.20 -100.95 L 16.70 -102.01 L 11.16 -102.76 L 5.59 -103.21 L -0.00 -103.37 L -5.59 -103.21 L -11.16 -102.76 L -16.70 -102.01 L -22.20 -100.95 L -27.62 -99.61 L -32.97 -97.97 L -38.22 -96.04 L -43.36 -93.83 L -48.37 -91.35 L -53.24 -88.60 L -57.95 -85.59 L -62.49 -82.33 L -66.86 -78.83 L -71.02 -75.10 L -74.98 -71.15 L -78.72 -66.99 L -82.22 -62.64 L -85.49 -58.10 L -88.51 -53.39 L -91.27 -48.53 L -93.76 -43.52 L -95.97 -38.39 L -97.91 -33.14 L -99.56 -27.80 L -100.92 -22.37 L -101.98 -16.88 L -102.74 -11.34 L -103.20 -5.77 L -103.37 -0.18 L -103.08 5.40 L -102.62 10.97 L -102.05 16.53 L -101.35 22.10 L -100.37 27.65 L -98.96 33.11 L -96.98 38.40 L -94.38 43.41 L -91.26 48.12 L -87.83 52.56 L -84.33 56.88 L -80.96 61.23 L -77.80 65.74 L -74.76 70.45 L -71.66 75.25 L -68.22 79.88 L -64.25 84.03 L -59.65 87.44 L -54.48 89.96 L -48.94 91.66 L -43.28 92.81 Z" fill="#D4AF37" />
  <path d="M -48.78 104.60 L -54.79 102.61 L -60.30 99.56 L -65.18 95.56 L -69.49 90.88 L -73.39 85.93 L -77.15 81.02 L -81.02 76.35 L -85.13 71.94 L -89.46 67.66 L -93.81 63.27 L -97.91 58.60 L -101.51 53.52 L -104.43 48.03 L -106.66 42.23 L -108.31 36.24 L -109.58 30.18 L -110.66 24.13 L -111.66 18.08 L -112.56 12.03 L -113.25 5.93 L -113.56 -0.20 L -113.38 -6.34 L -112.87 -12.46 L -112.03 -18.55 L -110.87 -24.58 L -109.37 -30.54 L -107.56 -36.41 L -105.44 -42.17 L -103.00 -47.81 L -100.27 -53.31 L -97.24 -58.66 L -93.92 -63.83 L -90.33 -68.81 L -86.48 -73.60 L -82.37 -78.17 L -78.02 -82.51 L -73.45 -86.61 L -68.66 -90.45 L -63.66 -94.03 L -58.49 -97.34 L -53.14 -100.36 L -47.63 -103.09 L -41.99 -105.51 L -36.22 -107.63 L -30.35 -109.43 L -24.38 -110.91 L -18.35 -112.07 L -12.26 -112.89 L -6.14 -113.39 L -0.00 -113.56 L 6.14 -113.39 L 12.26 -112.89 L 18.35 -112.07 L 24.38 -110.91 L 30.35 -109.43 L 36.22 -107.63 L 41.99 -105.51 L 47.63 -103.09 L 53.14 -100.36 L 58.49 -97.34 L 63.66 -94.03 L 68.66 -90.45 L 73.45 -86.61 L 78.02 -82.51 L 82.37 -78.17 L 86.48 -73.60 L 90.33 -68.81 L 93.92 -63.83 L 97.24 -58.66 L 100.27 -53.31 L 103.00 -47.81 L 105.44 -42.17 L 107.56 -36.41 L 109.37 -30.54 L 110.87 -24.58 L 112.03 -18.55 L 112.87 -12.46 L 113.38 -6.34 L 113.56 -0.20 L 113.39 5.94 L 113.08 12.09 L 112.56 18.23 L 111.65 24.34 L 110.22 30.36 L 108.16 36.19 L 105.51 41.78 L 102.44 47.12 L 99.19 52.29 L 95.96 57.43 L 92.91 62.67 L 89.98 68.05 L 87.01 73.53 L 83.74 78.91 L 79.91 83.91 L 75.37 88.25 L 70.15 91.75 L 64.41 94.42 L 58.43 96.47 L 52.47 98.27 L 46.73 100.22 L 45.67 97.95 L 51.29 96.06 L 57.13 94.33 L 63.00 92.36 L 68.63 89.77 L 73.75 86.35 L 78.18 82.10 L 81.92 77.20 L 85.10 71.92 L 87.99 66.54 L 90.83 61.27 L 93.82 56.15 L 96.97 51.13 L 100.17 46.07 L 103.19 40.85 L 105.79 35.40 L 107.81 29.69 L 109.21 23.81 L 110.09 17.83 L 110.60 11.82 L 110.90 5.81 L 111.06 -0.19 L 110.88 -6.20 L 110.39 -12.19 L 109.57 -18.14 L 108.43 -24.04 L 106.97 -29.87 L 105.19 -35.61 L 103.12 -41.24 L 100.73 -46.76 L 98.06 -52.14 L 95.10 -57.36 L 91.85 -62.42 L 88.34 -67.30 L 84.57 -71.98 L 80.56 -76.45 L 76.31 -80.69 L 71.83 -84.70 L 67.15 -88.46 L 62.26 -91.96 L 57.20 -95.20 L 51.97 -98.15 L 46.58 -100.82 L 41.06 -103.19 L 35.42 -105.26 L 29.68 -107.02 L 23.85 -108.47 L 17.95 -109.60 L 11.99 -110.41 L 6.01 -110.90 L -0.00 -111.06 L -6.01 -110.90 L -11.99 -110.41 L -17.95 -109.60 L -23.85 -108.47 L -29.68 -107.02 L -35.42 -105.26 L -41.06 -103.19 L -46.58 -100.82 L -51.97 -98.15 L -57.20 -95.20 L -62.26 -91.96 L -67.15 -88.46 L -71.83 -84.70 L -76.31 -80.69 L -80.56 -76.45 L -84.57 -71.98 L -88.34 -67.30 L -91.85 -62.42 L -95.10 -57.36 L -98.06 -52.14 L -100.73 -46.76 L -103.12 -41.24 L -105.19 -35.61 L -106.97 -29.87 L -108.43 -24.04 L -109.57 -18.14 L -110.39 -12.19 L -110.88 -6.20 L -111.06 -0.19 L -110.75 5.80 L -110.07 11.76 L -109.19 17.69 L -108.22 23.60 L -107.17 29.52 L -105.94 35.45 L -104.33 41.31 L -102.16 46.99 L -99.30 52.35 L -95.77 57.32 L -91.73 61.88 L -87.46 66.15 L -83.23 70.33 L -79.20 74.64 L -75.43 79.21 L -71.76 84.03 L -67.97 88.90 L -63.78 93.49 L -59.00 97.43 L -53.61 100.41 L -47.72 102.34 Z" fill="#D4AF37" />
  <path d="M -52.62 112.84 L -58.32 109.23 L -63.44 104.75 L -68.10 99.83 L -72.55 94.90 L -77.08 90.25 L -81.85 85.95 L -86.90 81.89 L -92.09 77.82 L -97.12 73.45 L -101.70 68.60 L -105.58 63.19 L -108.68 57.30 L -111.07 51.09 L -112.97 44.73 L -114.62 38.35 L -116.18 32.00 L -117.73 25.67 L -119.17 19.30 L -120.34 12.86 L -121.07 6.34 L -121.25 -0.21 L -121.06 -6.77 L -120.52 -13.31 L -119.62 -19.80 L -118.38 -26.24 L -116.78 -32.61 L -114.85 -38.87 L -112.58 -45.03 L -109.98 -51.05 L -107.06 -56.92 L -103.82 -62.63 L -100.28 -68.15 L -96.45 -73.48 L -92.34 -78.58 L -87.95 -83.46 L -83.31 -88.10 L -78.42 -92.47 L -73.31 -96.58 L -67.98 -100.40 L -62.45 -103.93 L -56.74 -107.16 L -50.86 -110.07 L -44.83 -112.66 L -38.67 -114.92 L -32.40 -116.84 L -26.04 -118.42 L -19.59 -119.66 L -13.09 -120.54 L -6.56 -121.07 L -0.00 -121.25 L 6.56 -121.07 L 13.09 -120.54 L 19.59 -119.66 L 26.04 -118.42 L 32.40 -116.84 L 38.67 -114.92 L 44.83 -112.66 L 50.86 -110.07 L 56.74 -107.16 L 62.45 -103.93 L 67.98 -100.40 L 73.31 -96.58 L 78.42 -92.47 L 83.31 -88.10 L 87.95 -83.46 L 92.34 -78.58 L 96.45 -73.48 L 100.28 -68.15 L 103.82 -62.63 L 107.06 -56.92 L 109.98 -51.05 L 112.58 -45.03 L 114.85 -38.87 L 116.78 -32.61 L 118.38 -26.24 L 119.62 -19.80 L 120.52 -13.31 L 121.06 -6.77 L 121.25 -0.21 L 121.24 6.35 L 120.94 12.93 L 120.20 19.47 L 118.87 25.92 L 116.92 32.20 L 114.45 38.29 L 111.66 44.21 L 108.79 50.04 L 106.01 55.89 L 103.34 61.85 L 100.66 67.90 L 97.72 73.91 L 94.24 79.64 L 90.02 84.83 L 85.02 89.28 L 79.36 92.92 L 73.32 95.90 L 67.21 98.53 L 61.29 101.20 L 55.66 104.24 L 50.26 107.79 L 49.21 105.53 L 54.48 102.03 L 59.99 99.06 L 65.80 96.46 L 71.80 93.91 L 77.73 91.02 L 83.29 87.47 L 88.20 83.12 L 92.33 78.03 L 95.73 72.40 L 98.59 66.50 L 101.20 60.56 L 103.80 54.73 L 106.52 48.99 L 109.33 43.29 L 112.07 37.50 L 114.50 31.54 L 116.42 25.38 L 117.73 19.07 L 118.46 12.66 L 118.74 6.22 L 118.75 -0.21 L 118.56 -6.63 L 118.03 -13.03 L 117.16 -19.39 L 115.94 -25.70 L 114.38 -31.93 L 112.48 -38.07 L 110.26 -44.10 L 107.71 -50.00 L 104.85 -55.75 L 101.68 -61.34 L 98.22 -66.75 L 94.46 -71.96 L 90.43 -76.96 L 86.14 -81.74 L 81.59 -86.28 L 76.81 -90.57 L 71.80 -94.59 L 66.58 -98.33 L 61.16 -101.79 L 55.57 -104.95 L 49.81 -107.80 L 43.91 -110.33 L 37.88 -112.55 L 31.73 -114.43 L 25.50 -115.98 L 19.19 -117.19 L 12.82 -118.06 L 6.42 -118.58 L -0.00 -118.75 L -6.42 -118.58 L -12.82 -118.06 L -19.19 -117.19 L -25.50 -115.98 L -31.73 -114.43 L -37.88 -112.55 L -43.91 -110.33 L -49.81 -107.80 L -55.57 -104.95 L -61.16 -101.79 L -66.58 -98.33 L -71.80 -94.59 L -76.81 -90.57 L -81.59 -86.28 L -86.14 -81.74 L -90.43 -76.96 L -94.46 -71.96 L -98.22 -66.75 L -101.68 -61.34 L -104.85 -55.75 L -107.71 -50.00 L -110.26 -44.10 L -112.48 -38.07 L -114.38 -31.93 L -115.94 -25.70 L -117.16 -19.39 L -118.03 -13.03 L -118.56 -6.63 L -118.75 -0.21 L -118.57 6.21 L -117.85 12.59 L -116.70 18.90 L -115.28 25.14 L -113.77 31.34 L -112.25 37.56 L -110.65 43.81 L -108.80 50.04 L -106.47 56.13 L -103.43 61.90 L -99.63 67.20 L -95.13 71.94 L -90.18 76.21 L -85.08 80.18 L -80.13 84.14 L -75.45 88.34 L -71.04 92.91 L -66.69 97.76 L -62.14 102.61 L -57.15 107.02 L -51.56 110.57 Z" fill="#D4AF37" />
</svg>
